<svg xmlns="http://www.w3.org/2000/svg" width="110" height="35" viewBox="0 0 110 35">
    <defs>
        <linearGradient id="prefix__a" x1="0%" x2="100%" y1="50%" y2="50%">
            <stop offset="0%" stop-color="#FF585D"/>
            <stop offset="49%" stop-color="#FD575C"/>
            <stop offset="76%" stop-color="#F55259"/>
            <stop offset="97%" stop-color="#E74955"/>
            <stop offset="99%" stop-color="#E54854"/>
        </linearGradient>
    </defs>
    <g fill="none">
        <path fill="url(#prefix__a)" d="M19.375 3.47C17.327 1.331 14.444 0 11.25 0 5.037 0 0 5.037 0 11.25c0 3.106 1.26 5.919 3.295 7.955C5.331 21.24 8.144 22.5 11.25 22.5c1.256 0 2.464-.206 3.592-.586 1.74-.586 3.29-1.586 4.533-2.884 1.936-2.02 3.125-4.761 3.125-7.78s-1.19-5.76-3.125-7.78zM11.25 16.25c-1.381 0-2.631-.56-3.536-1.464C6.81 13.88 6.25 12.63 6.25 11.25c0-2.76 2.24-5 5-5s5 2.24 5 5-2.24 5-5 5z"/>
        <path fill="#FF585D" d="M16.25 11.25c0 1.381-.56 2.631-1.464 3.536-.905.905-2.155 1.464-3.536 1.464-2.76 0-5-2.24-5-5H0C0 17.462 5.037 22.5 11.25 22.5c3.106 0 5.919-1.26 7.955-3.295 2.036-2.036 3.295-4.849 3.295-7.955h-6.25z"/>
        <path fill="#FF585D" d="M27.5 0c-3.194 0-6.077 1.331-8.125 3.47-1.936 2.02-3.125 4.761-3.125 7.78s1.19 5.76 3.125 7.78c1.936-2.02 3.125-4.761 3.125-7.78 0-2.76 2.24-5 5-5s5 2.24 5 5c0 1.381-.56 2.631-1.464 3.536l-7.128 7.128c1.128.38 2.336.586 3.592.586 3.106 0 5.919-1.26 7.955-3.295 2.036-2.036 3.295-4.849 3.295-7.955C38.75 5.037 33.712 0 27.5 0z"/>
        <path fill="#FF585D" d="M19.375 35L23.794 30.866 35.455 19.205 31.036 14.786 19.375 26.447 16.728 23.8 12.309 28.219z"/>
        <g fill="#100906">
            <path d="M63.75 7.692L63.75 12.821 60.625 12.821 60.625 24.359 55.625 24.359 55.625 12.821 52.5 12.821 52.5 7.692 55.625 7.692 55.625 1.282 60.625 1.282 60.625 7.692zM44.688 2.885C44.688 1.24 45.986 0 47.53 0c1.546 0 2.782 1.24 2.782 2.885 0 1.577-1.236 2.884-2.782 2.884-1.545 0-2.843-1.307-2.843-2.884zM45 7.692H50V24.359H45zM43.125 7.692L38.125 24.359 33.125 24.359 30.625 16.026 28.125 24.359 23.125 24.359 18.125 7.692 23.125 7.692 25.625 16.026 28.125 7.692 33.125 7.692 35.625 16.026 38.125 7.692zM10.23 10.633l-2.418-.758c-2.148-.62-2.282-1.69-2.282-2.171 0-1.31 1.073-2.343 2.718-2.343 1.688 0 2.533 1.048 2.641 2.331h5.275C16.027 3.25 12.687.641 8.348.641 3.752.641.194 3.535.194 7.808c0 2.238.973 5.444 6.073 6.855l2.753.863c2.047.689 2.552 1.55 2.552 2.48 0 1.55-1.31 2.343-3.022 2.343-1.695 0-3.098-1.025-3.27-2.4H0C.145 22.167 3.527 25 8.35 25c4.23 0 8.525-2.17 8.525-7.27 0-4.307-3.356-6.063-6.645-7.097z" transform="translate(46.25 6.25)"/>
        </g>
    </g>
</svg>
